<?xml version="1.0" encoding="UTF-8" standalone="no"?>
<svg
   viewBox="0 0 333.33334 333.33333"
   version="1.1"
   id="svg110"
   width="50"
   height="50"
   xmlns="http://www.w3.org/2000/svg"
   xmlns:svg="http://www.w3.org/2000/svg">
  <defs
     id="defs114" />
  <g
     id="f0610c07-f2f4-4ebf-9a92-80fb8d31169a"
     data-name="Typography"
     transform="translate(-56.699997,-287)">
    <g
       id="g107">
      <g
         id="g342"
         transform="matrix(0.72326004,0,0,0.73050624,15.691155,276.62848)">
        <polyline
           points="99.2 287.7 198.4 188.5 297.6 287.7 396.9 188.5 496.1 287.7"
           fill="none"
           stroke="#1c1c1b"
           stroke-width="2"
           id="polyline75" />
        <g
           id="g81">
          <circle
             cx="496.10001"
             cy="287.70001"
             r="21.299999"
             fill="#eb6621"
             id="circle77" />
          <path
             d="m 499.6,276.9 v 21.4 h -7.1 v -21.4 z"
             fill="#ffffff"
             id="path79" />
        </g>
        <g
           id="g87">
          <circle
             cx="396.79999"
             cy="188.5"
             r="34"
             fill="#eb6621"
             id="circle83" />
          <path
             d="m 397.7,171.2 a 18,18 0 0 1 6.2,1.1 13.4,13.4 0 0 1 4.9,3.2 14.5,14.5 0 0 1 3.3,5.2 21.5,21.5 0 0 1 1.2,7.5 21.7,21.7 0 0 1 -1,6.9 15.3,15.3 0 0 1 -2.9,5.5 14.4,14.4 0 0 1 -4.8,3.6 16.3,16.3 0 0 1 -6.9,1.3 h -14.8 v -34.3 z m -0.5,28 a 11.9,11.9 0 0 0 3.2,-0.5 8,8 0 0 0 2.7,-1.8 9.1,9.1 0 0 0 1.9,-3.2 13.5,13.5 0 0 0 0.7,-4.8 17.4,17.4 0 0 0 -0.5,-4.7 7.6,7.6 0 0 0 -1.6,-3.5 7.2,7.2 0 0 0 -3.1,-2.3 10.5,10.5 0 0 0 -4.6,-0.8 h -5.4 v 21.6 z"
             fill="#ffffff"
             id="path85" />
        </g>
        <g
           id="g93">
          <circle
             cx="297.60001"
             cy="287.70001"
             r="42.5"
             fill="#eb6621"
             id="circle89" />
          <path
             d="m 281.8,266.1 h 20.5 c 4.7,0 8.2,1.1 10.6,3.1 a 10.8,10.8 0 0 1 3.5,8.5 12.3,12.3 0 0 1 -0.9,5.1 11.1,11.1 0 0 1 -2.1,3.2 8.5,8.5 0 0 1 -2.3,1.8 l -1.8,0.7 v 0 a 8.3,8.3 0 0 1 2.1,0.6 7.8,7.8 0 0 1 2.1,1.6 8.8,8.8 0 0 1 1.6,2.7 12.5,12.5 0 0 1 0.6,4.2 36.9,36.9 0 0 0 0.6,6.9 9.6,9.6 0 0 0 1.7,4.5 h -8 a 6.7,6.7 0 0 1 -1,-3.1 c -0.1,-1.1 -0.1,-2.2 -0.1,-3.2 a 35.2,35.2 0 0 0 -0.4,-5.1 8.5,8.5 0 0 0 -1.3,-3.5 5.3,5.3 0 0 0 -2.6,-2.1 12.4,12.4 0 0 0 -4.3,-0.7 h -11 V 309 h -7.5 z m 7.5,19.5 h 12.3 c 2.4,0 4.2,-0.5 5.5,-1.7 1.3,-1.2 1.8,-2.8 1.8,-5.1 a 7.5,7.5 0 0 0 -0.6,-3.3 4.1,4.1 0 0 0 -1.6,-2 6.4,6.4 0 0 0 -2.4,-1 13.2,13.2 0 0 0 -2.8,-0.2 h -12.2 z"
             fill="#ffffff"
             id="path91" />
        </g>
        <g
           id="g99">
          <circle
             cx="99.199997"
             cy="287.70001"
             r="42.5"
             fill="#005ead"
             id="circle95" />
          <path
             d="m 78.7,266.1 h 3.8 L 99.2,306 h 0.2 l 16.5,-39.9 h 3.8 V 309 h -2.6 v -39.6 h -0.2 L 100.6,309 H 98 L 81.5,269.4 H 81.4 V 309 h -2.7 z"
             fill="#ffffff"
             id="path97" />
        </g>
        <g
           id="g105">
          <circle
             cx="198.39999"
             cy="188.5"
             r="21.299999"
             fill="#005ead"
             id="circle101" />
          <path
             d="m 190.7,181.2 a 7.1,7.1 0 0 1 1.8,-2.3 8.4,8.4 0 0 1 2.7,-1.3 16.7,16.7 0 0 1 3.4,-0.4 l 2.8,0.3 a 7.7,7.7 0 0 1 2.5,1 6.3,6.3 0 0 1 1.8,2.1 7.3,7.3 0 0 1 0.7,3.5 v 11.3 a 1.4,1.4 0 0 0 1.5,1.6 l 0.9,-0.2 v 2.2 h -1.7 l -1.6,-0.2 a 3.9,3.9 0 0 1 -1,-0.8 3.4,3.4 0 0 1 -0.4,-1.2 6.6,6.6 0 0 1 -0.1,-1.5 h -0.1 a 13.3,13.3 0 0 1 -1.4,1.9 l -1.6,1.3 a 7,7 0 0 1 -2,0.8 11.2,11.2 0 0 1 -2.7,0.3 12.7,12.7 0 0 1 -2.8,-0.3 6.3,6.3 0 0 1 -2.3,-1.2 5.8,5.8 0 0 1 -1.5,-1.9 6.7,6.7 0 0 1 0.4,-6.3 8.3,8.3 0 0 1 2.6,-1.9 20,20 0 0 1 3.7,-0.9 l 4.2,-0.5 1.4,-0.2 1,-0.5 a 1.9,1.9 0 0 0 0.7,-0.8 5.2,5.2 0 0 0 0.2,-1.4 4.8,4.8 0 0 0 -0.4,-2.2 3.7,3.7 0 0 0 -1.2,-1.3 4.8,4.8 0 0 0 -1.8,-0.7 l -2.2,-0.2 a 6.3,6.3 0 0 0 -4,1.2 4.9,4.9 0 0 0 -1.7,3.8 h -2.6 a 9.4,9.4 0 0 1 0.8,-3.1 z m 13,6.3 c -0.1,0.3 -0.5,0.5 -0.9,0.7 l -1.3,0.3 -3.4,0.5 a 16.5,16.5 0 0 0 -3.2,0.6 9.9,9.9 0 0 0 -2.3,1.3 3,3 0 0 0 -1,2.5 4.7,4.7 0 0 0 0.4,1.7 3.5,3.5 0 0 0 1.1,1.3 3.8,3.8 0 0 0 1.5,0.9 l 1.8,0.3 a 8.7,8.7 0 0 0 2.8,-0.5 7,7 0 0 0 2.4,-1.3 6.5,6.5 0 0 0 1.6,-2.1 6.4,6.4 0 0 0 0.6,-2.8 v -3.4 z"
             fill="#ffffff"
             id="path103" />
        </g>
      </g>
    </g>
  </g>
</svg>
